<svg width="146" height="168" viewBox="0 0 146 168" fill="none" xmlns="http://www.w3.org/2000/svg">
<path d="M0 163.856V124.993C30.6705 140.538 39.3885 116.065 39.9137 101.885V11.554H79.3022V99.259C78.882 169.843 26.259 171.734 0 163.856Z" fill="#0E1F43"/>
<path d="M39.922 104.511V11.554H78.7852V90.8561C77.5248 114.384 89.4639 117.115 95.591 115.54V157.029C50.2155 155.348 39.5718 121.317 39.922 104.511Z" fill="#993935"/>
<path d="M64.5 149C77.3 133 79.5 111 79 102C80.6 114 90.6667 116.667 95.5 116.5V157C82.3 158.2 69.3333 152.167 64.5 149Z" fill="#F05529"/>
<path d="M68.2734 94.0072V50.4172H144.424V156.504H104.511V94.0072H68.2734Z" fill="#FEBF11"/>
<circle cx="126.043" cy="19.9568" r="19.9568" fill="#FEBF11"/>
<rect x="68" y="50" width="37" height="44" fill="#F05529"/>
</svg>
